G04 #@! TF.GenerationSoftware,KiCad,Pcbnew,(5.1.0)-1*
G04 #@! TF.CreationDate,2019-05-23T23:37:30-04:00*
G04 #@! TF.ProjectId,KITT Voicebox 12v,4b495454-2056-46f6-9963-65626f782031,rev?*
G04 #@! TF.SameCoordinates,Original*
G04 #@! TF.FileFunction,Copper,L1,Top*
G04 #@! TF.FilePolarity,Positive*
%FSLAX46Y46*%
G04 Gerber Fmt 4.6, Leading zero omitted, Abs format (unit mm)*
G04 Created by KiCad (PCBNEW (5.1.0)-1) date 2019-05-23 23:37:30*
%MOMM*%
%LPD*%
G04 APERTURE LIST*
%ADD10C,1.700000*%
%ADD11C,2.000000*%
%ADD12C,1.620000*%
%ADD13C,6.000000*%
%ADD14O,1.600000X1.600000*%
%ADD15C,1.600000*%
%ADD16R,1.050000X1.500000*%
%ADD17O,1.050000X1.500000*%
%ADD18C,2.032000*%
%ADD19R,2.032000X2.032000*%
%ADD20R,1.200000X1.200000*%
%ADD21C,1.200000*%
%ADD22R,4.000000X2.200000*%
%ADD23O,2.200000X4.000000*%
%ADD24O,4.000000X2.200000*%
%ADD25R,2.000000X4.000000*%
%ADD26O,2.000000X3.300000*%
%ADD27O,3.500000X2.000000*%
%ADD28R,1.298000X1.298000*%
%ADD29C,1.298000*%
%ADD30C,0.800000*%
%ADD31C,0.250000*%
G04 APERTURE END LIST*
D10*
X169544000Y-48808000D03*
X165544000Y-48808000D03*
X161544000Y-48808000D03*
X169544000Y-51308000D03*
X165544000Y-51308000D03*
X161544000Y-51308000D03*
D11*
X159544000Y-47058000D03*
X171544000Y-47058000D03*
X171544000Y-53058000D03*
X159544000Y-53058000D03*
D12*
X168656000Y-107696000D03*
X166156000Y-112696000D03*
X163656000Y-107696000D03*
D13*
X180848000Y-118110000D03*
X180848000Y-50292000D03*
D14*
X105410000Y-70000000D03*
D15*
X113030000Y-70000000D03*
D16*
X116350000Y-75000000D03*
D17*
X118890000Y-75000000D03*
X117620000Y-75000000D03*
D13*
X97282000Y-118364000D03*
X97282000Y-50292000D03*
D18*
X143060000Y-78700000D03*
X143060000Y-81240000D03*
X143060000Y-83780000D03*
X143060000Y-86320000D03*
X135440000Y-99020000D03*
X135440000Y-101560000D03*
X143060000Y-101560000D03*
X143060000Y-99020000D03*
X135440000Y-96480000D03*
X135440000Y-93940000D03*
X135440000Y-91400000D03*
X135440000Y-88860000D03*
X143060000Y-88860000D03*
X143060000Y-91400000D03*
X143060000Y-93940000D03*
X143060000Y-96480000D03*
X135440000Y-86320000D03*
X135440000Y-83780000D03*
X135440000Y-81240000D03*
D19*
X135440000Y-78700000D03*
D15*
X132715000Y-107315000D03*
D14*
X132715000Y-114935000D03*
D19*
X125000000Y-53190000D03*
D18*
X125000000Y-55730000D03*
X125000000Y-58270000D03*
X125000000Y-60810000D03*
X132620000Y-70970000D03*
X132620000Y-68430000D03*
X132620000Y-65890000D03*
X132620000Y-63350000D03*
X125000000Y-63350000D03*
X125000000Y-65890000D03*
X125000000Y-68430000D03*
X125000000Y-70970000D03*
X132620000Y-73510000D03*
X132620000Y-76050000D03*
X125000000Y-76050000D03*
X125000000Y-73510000D03*
X132620000Y-60810000D03*
X132620000Y-58270000D03*
X132620000Y-55730000D03*
X132620000Y-53190000D03*
D19*
X135440000Y-53190000D03*
D18*
X135440000Y-55730000D03*
X135440000Y-58270000D03*
X135440000Y-60810000D03*
X143060000Y-70970000D03*
X143060000Y-68430000D03*
X143060000Y-65890000D03*
X143060000Y-63350000D03*
X135440000Y-63350000D03*
X135440000Y-65890000D03*
X135440000Y-68430000D03*
X135440000Y-70970000D03*
X143060000Y-73510000D03*
X143060000Y-76050000D03*
X135440000Y-76050000D03*
X135440000Y-73510000D03*
X143060000Y-60810000D03*
X143060000Y-58270000D03*
X143060000Y-55730000D03*
X143060000Y-53190000D03*
D17*
X117620000Y-80000000D03*
X118890000Y-80000000D03*
D16*
X116350000Y-80000000D03*
D18*
X132620000Y-78700000D03*
X132620000Y-81240000D03*
X132620000Y-83780000D03*
X132620000Y-86320000D03*
X125000000Y-99020000D03*
X125000000Y-101560000D03*
X132620000Y-101560000D03*
X132620000Y-99020000D03*
X125000000Y-96480000D03*
X125000000Y-93940000D03*
X125000000Y-91400000D03*
X125000000Y-88860000D03*
X132620000Y-88860000D03*
X132620000Y-91400000D03*
X132620000Y-93940000D03*
X132620000Y-96480000D03*
X125000000Y-86320000D03*
X125000000Y-83780000D03*
X125000000Y-81240000D03*
D19*
X125000000Y-78700000D03*
X145880000Y-53190000D03*
D18*
X145880000Y-55730000D03*
X145880000Y-58270000D03*
X145880000Y-60810000D03*
X153500000Y-70970000D03*
X153500000Y-68430000D03*
X153500000Y-65890000D03*
X153500000Y-63350000D03*
X145880000Y-63350000D03*
X145880000Y-65890000D03*
X145880000Y-68430000D03*
X145880000Y-70970000D03*
X153500000Y-73510000D03*
X153500000Y-76050000D03*
X145880000Y-76050000D03*
X145880000Y-73510000D03*
X153500000Y-60810000D03*
X153500000Y-58270000D03*
X153500000Y-55730000D03*
X153500000Y-53190000D03*
X153500000Y-78700000D03*
X153500000Y-81240000D03*
X153500000Y-83780000D03*
X153500000Y-86320000D03*
X145880000Y-99020000D03*
X145880000Y-101560000D03*
X153500000Y-101560000D03*
X153500000Y-99020000D03*
X145880000Y-96480000D03*
X145880000Y-93940000D03*
X145880000Y-91400000D03*
X145880000Y-88860000D03*
X153500000Y-88860000D03*
X153500000Y-91400000D03*
X153500000Y-93940000D03*
X153500000Y-96480000D03*
X145880000Y-86320000D03*
X145880000Y-83780000D03*
X145880000Y-81240000D03*
D19*
X145880000Y-78700000D03*
D20*
X174752000Y-91440000D03*
D21*
X174752000Y-92940000D03*
D22*
X179705000Y-80645000D03*
D23*
X172405000Y-80145000D03*
D24*
X176805000Y-73545000D03*
X175605000Y-70845000D03*
D23*
X183605000Y-76045000D03*
X183605000Y-62075000D03*
D24*
X175605000Y-56875000D03*
X176805000Y-59575000D03*
D23*
X172405000Y-66175000D03*
D22*
X179705000Y-66675000D03*
D25*
X173228000Y-105664000D03*
D26*
X179228000Y-105664000D03*
D27*
X180228000Y-101164000D03*
X180228000Y-110164000D03*
D16*
X116350000Y-55000000D03*
D17*
X118890000Y-55000000D03*
X117620000Y-55000000D03*
X117620000Y-60000000D03*
X118890000Y-60000000D03*
D16*
X116350000Y-60000000D03*
X116350000Y-65000000D03*
D17*
X118890000Y-65000000D03*
X117620000Y-65000000D03*
X117620000Y-70000000D03*
X118890000Y-70000000D03*
D16*
X116350000Y-70000000D03*
X116350000Y-85000000D03*
D17*
X118890000Y-85000000D03*
X117620000Y-85000000D03*
X117620000Y-90000000D03*
X118890000Y-90000000D03*
D16*
X116350000Y-90000000D03*
X116350000Y-95000000D03*
D17*
X118890000Y-95000000D03*
X117620000Y-95000000D03*
X117620000Y-100000000D03*
X118890000Y-100000000D03*
D16*
X116350000Y-100000000D03*
D14*
X167640000Y-93472000D03*
D15*
X160020000Y-93472000D03*
X160020000Y-88392000D03*
D14*
X167640000Y-88392000D03*
D15*
X127762000Y-115062000D03*
D14*
X127762000Y-107442000D03*
D15*
X113030000Y-55000000D03*
D14*
X105410000Y-55000000D03*
X105410000Y-60000000D03*
D15*
X113030000Y-60000000D03*
X113030000Y-65000000D03*
D14*
X105410000Y-65000000D03*
D15*
X113030000Y-75000000D03*
D14*
X105410000Y-75000000D03*
X105410000Y-80010000D03*
D15*
X113030000Y-80010000D03*
X113030000Y-85000000D03*
D14*
X105410000Y-85000000D03*
X105410000Y-90000000D03*
D15*
X113030000Y-90000000D03*
X113030000Y-95000000D03*
D14*
X105410000Y-95000000D03*
X105410000Y-100000000D03*
D15*
X113030000Y-100000000D03*
X167640000Y-98425000D03*
D14*
X160020000Y-98425000D03*
X158115000Y-107315000D03*
D15*
X158115000Y-114935000D03*
D14*
X142875000Y-114935000D03*
D15*
X142875000Y-107315000D03*
D14*
X160020000Y-103505000D03*
D15*
X167640000Y-103505000D03*
D14*
X137795000Y-114935000D03*
D15*
X137795000Y-107315000D03*
X153035000Y-114935000D03*
D14*
X153035000Y-107315000D03*
D15*
X147955000Y-107315000D03*
D14*
X147955000Y-114935000D03*
D28*
X102616000Y-115062000D03*
D29*
X105156000Y-115062000D03*
X107696000Y-115062000D03*
X110236000Y-115062000D03*
X112776000Y-115062000D03*
X115316000Y-115062000D03*
X117856000Y-115062000D03*
X120396000Y-115062000D03*
X122936000Y-115062000D03*
X122936000Y-107442000D03*
X120396000Y-107442000D03*
X117856000Y-107442000D03*
X115316000Y-107442000D03*
X112776000Y-107442000D03*
X110236000Y-107442000D03*
X107696000Y-107442000D03*
X105156000Y-107442000D03*
X102616000Y-107442000D03*
D30*
X119126000Y-103632000D03*
X120396000Y-103632000D03*
X121666000Y-103632000D03*
D31*
X125000000Y-52500000D02*
X125000000Y-75000000D01*
X125000000Y-76200000D02*
X125000000Y-75060000D01*
X125000000Y-52500000D02*
X125000000Y-75060000D01*
X125000000Y-75060000D02*
X125000000Y-75360000D01*
X125000000Y-51399942D02*
X126744971Y-49654971D01*
X125000000Y-52500000D02*
X125000000Y-51399942D01*
X126744971Y-49654971D02*
X154904201Y-49654971D01*
X154904201Y-49654971D02*
X157600028Y-52350798D01*
X157600028Y-52350798D02*
X157600028Y-52949968D01*
X157600028Y-52949968D02*
X157600030Y-52949970D01*
X157600030Y-96005030D02*
X157600030Y-95116030D01*
X160020000Y-98425000D02*
X157600030Y-96005030D01*
X157600030Y-52949970D02*
X157600030Y-95116030D01*
X152274001Y-82764001D02*
X153290000Y-83780000D01*
X151948999Y-82438999D02*
X152274001Y-82764001D01*
X130828990Y-81988990D02*
X131604001Y-82764001D01*
X131604001Y-82764001D02*
X132620000Y-83780000D01*
X143070000Y-91400000D02*
X139041051Y-87371051D01*
X130828990Y-72911010D02*
X130828990Y-73078990D01*
X132620000Y-71120000D02*
X130828990Y-72911010D01*
X130828990Y-73078990D02*
X130828990Y-81988990D01*
X139041051Y-67528949D02*
X139041051Y-68491051D01*
X143070000Y-63500000D02*
X139041051Y-67528949D01*
X139041051Y-87371051D02*
X139041051Y-68491051D01*
X151948999Y-72461001D02*
X151948999Y-72948999D01*
X153290000Y-71120000D02*
X151948999Y-72461001D01*
X151948999Y-72948999D02*
X151948999Y-82438999D01*
X132620000Y-86320000D02*
X130378981Y-84078981D01*
X143070000Y-93940000D02*
X138591041Y-89461041D01*
X130378981Y-70821019D02*
X130378981Y-71161019D01*
X132620000Y-68580000D02*
X130378981Y-70821019D01*
X130378981Y-84078981D02*
X130378981Y-71161019D01*
X138591041Y-65458959D02*
X138591041Y-66961041D01*
X142054001Y-61995999D02*
X138591041Y-65458959D01*
X143070000Y-60960000D02*
X142054001Y-61975999D01*
X138591041Y-89461041D02*
X138591041Y-66961041D01*
X155301010Y-84518990D02*
X153500000Y-86320000D01*
X155321010Y-84518990D02*
X155301010Y-84518990D01*
X153490000Y-68480000D02*
X155321010Y-70311010D01*
X155321010Y-70311010D02*
X155321010Y-84518990D01*
X152274001Y-87844001D02*
X153290000Y-88860000D01*
X151498990Y-87068990D02*
X152274001Y-87844001D01*
X132620000Y-88860000D02*
X129928972Y-86168972D01*
X143070000Y-96020000D02*
X138141031Y-91091031D01*
X142760000Y-96480000D02*
X142760000Y-96020000D01*
X129928972Y-68731028D02*
X129928972Y-69308972D01*
X132620000Y-66040000D02*
X129928972Y-68731028D01*
X129928972Y-86168972D02*
X129928972Y-69308972D01*
X138141031Y-63348969D02*
X138141031Y-64348969D01*
X143070000Y-58420000D02*
X138141031Y-63348969D01*
X138141031Y-91091031D02*
X138141031Y-64348969D01*
X151498990Y-67831010D02*
X151498990Y-68608990D01*
X153290000Y-66040000D02*
X151498990Y-67831010D01*
X151498990Y-68608990D02*
X151498990Y-87068990D01*
X132620000Y-91400000D02*
X129478963Y-88258963D01*
X143070000Y-99020000D02*
X137691021Y-93641021D01*
X129478963Y-66641037D02*
X129478963Y-67378963D01*
X132620000Y-63500000D02*
X129478963Y-66641037D01*
X129478963Y-88258963D02*
X129478963Y-67378963D01*
X137691021Y-61258979D02*
X137691021Y-62998979D01*
X143070000Y-55880000D02*
X137691021Y-61258979D01*
X137691021Y-93641021D02*
X137691021Y-62998979D01*
X155751019Y-89148981D02*
X153500000Y-91400000D01*
X155771019Y-89148981D02*
X155751019Y-89148981D01*
X153490000Y-63400000D02*
X155771019Y-65681019D01*
X155771019Y-65681019D02*
X155771019Y-89148981D01*
X131604001Y-80224001D02*
X132620000Y-81240000D01*
X131278999Y-79898999D02*
X131604001Y-80224001D01*
X143070000Y-88860000D02*
X142054001Y-87844001D01*
X142024001Y-87844001D02*
X139491061Y-85311061D01*
X131278999Y-75001001D02*
X131278999Y-75848999D01*
X132620000Y-73660000D02*
X131278999Y-75001001D01*
X131278999Y-75848999D02*
X131278999Y-79898999D01*
X139491061Y-69618939D02*
X139491061Y-70328939D01*
X143070000Y-66040000D02*
X139491061Y-69618939D01*
X139491061Y-85311061D02*
X139491061Y-70328939D01*
X154871001Y-79658999D02*
X153290000Y-81240000D01*
X153490000Y-73560000D02*
X154871001Y-74941001D01*
X154871001Y-74941001D02*
X154871001Y-79658999D01*
X153510000Y-75390000D02*
X153510000Y-78730000D01*
X132620000Y-75360000D02*
X132620000Y-78700000D01*
X143070000Y-86320000D02*
X139941071Y-83191071D01*
X139941071Y-71708929D02*
X139941071Y-72821071D01*
X143070000Y-68580000D02*
X139941071Y-71708929D01*
X139941071Y-83191071D02*
X139941071Y-72821071D01*
X152274001Y-92924001D02*
X153290000Y-93940000D01*
X151048980Y-91698980D02*
X152274001Y-92924001D01*
X131604001Y-92924001D02*
X132620000Y-93940000D01*
X129028954Y-90348954D02*
X131604001Y-92924001D01*
X137241011Y-95731011D02*
X142054001Y-100544001D01*
X142054001Y-100544001D02*
X143070000Y-101560000D01*
X129028954Y-64551046D02*
X129028954Y-65471046D01*
X132620000Y-60960000D02*
X129028954Y-64551046D01*
X129028954Y-65471046D02*
X129028954Y-90348954D01*
X143070000Y-53340000D02*
X137241011Y-59168989D01*
X137241011Y-59168989D02*
X137241011Y-60038989D01*
X137241011Y-60038989D02*
X137241011Y-95731011D01*
X151048980Y-63201020D02*
X151048980Y-64411020D01*
X153290000Y-60960000D02*
X151048980Y-63201020D01*
X151048980Y-64411020D02*
X151048980Y-91698980D01*
X125000000Y-79966000D02*
X125000000Y-101560000D01*
X125000000Y-78700000D02*
X125000000Y-79966000D01*
X126960000Y-101560000D02*
X132715000Y-107315000D01*
X125000000Y-101560000D02*
X126960000Y-101560000D01*
X135450000Y-53340000D02*
X135450000Y-68580000D01*
X137869020Y-50104980D02*
X138785020Y-50104980D01*
X154717800Y-50104980D02*
X157150019Y-52537199D01*
X137259020Y-50104980D02*
X138285020Y-50104980D01*
X135440000Y-51924000D02*
X137259020Y-50104980D01*
X135440000Y-53190000D02*
X135440000Y-51924000D01*
X137265020Y-50104980D02*
X138285020Y-50104980D01*
X138285020Y-50104980D02*
X154717800Y-50104980D01*
X157150019Y-100635019D02*
X160020000Y-103505000D01*
X157150019Y-52537199D02*
X157150019Y-100635019D01*
X140391081Y-81101081D02*
X143070000Y-83780000D01*
X140391081Y-74354237D02*
X140401834Y-74354237D01*
X118890000Y-65000000D02*
X118890000Y-65225000D01*
X140391081Y-73798919D02*
X140391081Y-75361081D01*
X143070000Y-71120000D02*
X140391081Y-73798919D01*
X140391081Y-75361081D02*
X140391081Y-81101081D01*
X120650000Y-67760000D02*
X120650000Y-100784315D01*
X118890000Y-66000000D02*
X120650000Y-67760000D01*
X118890000Y-65000000D02*
X118890000Y-66000000D01*
X119861158Y-102896842D02*
X119126000Y-103632000D01*
X119861158Y-101573158D02*
X119861158Y-102896842D01*
X120650000Y-100784315D02*
X119861158Y-101573158D01*
X156700009Y-105900009D02*
X158115000Y-107315000D01*
X156700010Y-52723600D02*
X156700009Y-105900009D01*
X135450000Y-71120000D02*
X136791001Y-69778999D01*
X135450000Y-76200000D02*
X135450000Y-71120000D01*
X136791001Y-69778999D02*
X136791001Y-51738999D01*
X136791001Y-51738999D02*
X137975010Y-50554990D01*
X137975010Y-50554990D02*
X154531400Y-50554990D01*
X154531400Y-50554990D02*
X156700010Y-52723600D01*
X141230000Y-79400000D02*
X141500000Y-79670000D01*
X141500000Y-79670000D02*
X143070000Y-81240000D01*
X141230000Y-75500000D02*
X141230000Y-76580000D01*
X143070000Y-73660000D02*
X141230000Y-75500000D01*
X141230000Y-76580000D02*
X141230000Y-79400000D01*
X120396000Y-103066315D02*
X120396000Y-103632000D01*
X120396000Y-102741590D02*
X120396000Y-103066315D01*
X121100010Y-102037580D02*
X120396000Y-102741590D01*
X121100010Y-62435010D02*
X121100010Y-102037580D01*
X118890000Y-60225000D02*
X121100010Y-62435010D01*
X118890000Y-60000000D02*
X118890000Y-60225000D01*
X118890000Y-55000000D02*
X118850000Y-55000000D01*
X118850000Y-55000000D02*
X118470010Y-55000000D01*
X118890000Y-55000000D02*
X118890000Y-55225000D01*
X143070000Y-78690000D02*
X143060000Y-78700000D01*
X143070000Y-76200000D02*
X143070000Y-78690000D01*
X121550000Y-102224000D02*
X121666000Y-102340000D01*
X119665000Y-55000000D02*
X118890000Y-55000000D01*
X121666000Y-57001000D02*
X119665000Y-55000000D01*
X121666000Y-103632000D02*
X121666000Y-57001000D01*
X135450000Y-101560000D02*
X135450000Y-86320000D01*
X137795000Y-103915000D02*
X135440000Y-101560000D01*
X137795000Y-107315000D02*
X137795000Y-103915000D01*
X135450000Y-78710000D02*
X135440000Y-78700000D01*
X135450000Y-83780000D02*
X135450000Y-78710000D01*
X136791001Y-85121001D02*
X135450000Y-83780000D01*
X136791001Y-101231001D02*
X136791001Y-99174999D01*
X142875000Y-107315000D02*
X136791001Y-101231001D01*
X136791001Y-99174999D02*
X136791001Y-85121001D01*
X156250000Y-104100000D02*
X153035000Y-107315000D01*
X156250000Y-53030000D02*
X156250000Y-104100000D01*
X154225000Y-51005000D02*
X156250000Y-53030000D01*
X146839000Y-51005000D02*
X154225000Y-51005000D01*
X145870000Y-76100000D02*
X145870000Y-51974000D01*
X145870000Y-51974000D02*
X146839000Y-51005000D01*
X145890000Y-78700000D02*
X145890000Y-101560000D01*
X145980000Y-102160000D02*
X145380000Y-101560000D01*
X145880000Y-105240000D02*
X147955000Y-107315000D01*
X145880000Y-101560000D02*
X145880000Y-105240000D01*
X160020000Y-88392000D02*
X160020000Y-93472000D01*
X174752000Y-92940000D02*
X174752000Y-107725002D01*
X173971003Y-108505999D02*
X174258501Y-108218501D01*
X169465999Y-108505999D02*
X173971003Y-108505999D01*
X168656000Y-107696000D02*
X169465999Y-108505999D01*
X174752000Y-107725002D02*
X174258501Y-108218501D01*
X168228000Y-93472000D02*
X167640000Y-93472000D01*
X179705000Y-81995000D02*
X168228000Y-93472000D01*
X179705000Y-80645000D02*
X179705000Y-81995000D01*
X167640000Y-83560000D02*
X167640000Y-88392000D01*
X172405000Y-80145000D02*
X171055000Y-80145000D01*
X171055000Y-80145000D02*
X167640000Y-83560000D01*
X162393999Y-52157999D02*
X161544000Y-51308000D01*
X162719001Y-52483001D02*
X162393999Y-52157999D01*
X162719001Y-96405001D02*
X162719001Y-94836999D01*
X171978000Y-105664000D02*
X162719001Y-96405001D01*
X173228000Y-105664000D02*
X171978000Y-105664000D01*
X162719001Y-95070999D02*
X162719001Y-94836999D01*
X162719001Y-94836999D02*
X162719001Y-52483001D01*
X117620000Y-54000000D02*
X116960000Y-53340000D01*
X117620000Y-55000000D02*
X117620000Y-54000000D01*
X114690000Y-53340000D02*
X113030000Y-55000000D01*
X116960000Y-53340000D02*
X114690000Y-53340000D01*
X117620000Y-59000000D02*
X117040000Y-58420000D01*
X117620000Y-60000000D02*
X117620000Y-59000000D01*
X114610000Y-58420000D02*
X113030000Y-60000000D01*
X117040000Y-58420000D02*
X114610000Y-58420000D01*
X117620000Y-64000000D02*
X116485000Y-62865000D01*
X117620000Y-65000000D02*
X117620000Y-64000000D01*
X115165000Y-62865000D02*
X113030000Y-65000000D01*
X116485000Y-62865000D02*
X115165000Y-62865000D01*
X117620000Y-69000000D02*
X116565000Y-67945000D01*
X117620000Y-70000000D02*
X117620000Y-69000000D01*
X115085000Y-67945000D02*
X113030000Y-70000000D01*
X116565000Y-67945000D02*
X115085000Y-67945000D01*
X117620000Y-74000000D02*
X116645000Y-73025000D01*
X117620000Y-75000000D02*
X117620000Y-74000000D01*
X115005000Y-73025000D02*
X113030000Y-75000000D01*
X116645000Y-73025000D02*
X115005000Y-73025000D01*
X117620000Y-79000000D02*
X116725000Y-78105000D01*
X117620000Y-80000000D02*
X117620000Y-79000000D01*
X114935000Y-78105000D02*
X113030000Y-80010000D01*
X116725000Y-78105000D02*
X114935000Y-78105000D01*
X117620000Y-84000000D02*
X116805000Y-83185000D01*
X117620000Y-85000000D02*
X117620000Y-84000000D01*
X114845000Y-83185000D02*
X113030000Y-85000000D01*
X116805000Y-83185000D02*
X114845000Y-83185000D01*
X117620000Y-89000000D02*
X116885000Y-88265000D01*
X117620000Y-90000000D02*
X117620000Y-89000000D01*
X114765000Y-88265000D02*
X113030000Y-90000000D01*
X116885000Y-88265000D02*
X114765000Y-88265000D01*
X117620000Y-94000000D02*
X116965000Y-93345000D01*
X117620000Y-95000000D02*
X117620000Y-94000000D01*
X114685000Y-93345000D02*
X113030000Y-95000000D01*
X116965000Y-93345000D02*
X114685000Y-93345000D01*
X117620000Y-99000000D02*
X117045000Y-98425000D01*
X117620000Y-100000000D02*
X117620000Y-99000000D01*
X114605000Y-98425000D02*
X113030000Y-100000000D01*
X117045000Y-98425000D02*
X114605000Y-98425000D01*
X115316000Y-115062000D02*
X117856000Y-115062000D01*
X126630630Y-115062000D02*
X124852630Y-113284000D01*
X127762000Y-115062000D02*
X126630630Y-115062000D01*
X119634000Y-113284000D02*
X117856000Y-115062000D01*
X124852630Y-113284000D02*
X119634000Y-113284000D01*
X104610001Y-55799999D02*
X105410000Y-55000000D01*
X100514990Y-98240010D02*
X100514990Y-59895010D01*
X100514990Y-59895010D02*
X104610001Y-55799999D01*
X102616000Y-114163000D02*
X102616000Y-115062000D01*
X100514990Y-112061990D02*
X102616000Y-114163000D01*
X100514990Y-98240010D02*
X100514990Y-112061990D01*
X100965000Y-64445000D02*
X105410000Y-60000000D01*
X100965000Y-100965000D02*
X100965000Y-64445000D01*
X100965000Y-105791000D02*
X102616000Y-107442000D01*
X100965000Y-100965000D02*
X100965000Y-105791000D01*
X104610001Y-65799999D02*
X105410000Y-65000000D01*
X101439944Y-68970056D02*
X104610001Y-65799999D01*
X101439944Y-102718404D02*
X101439944Y-101439944D01*
X105156000Y-106434460D02*
X101439944Y-102718404D01*
X105156000Y-107442000D02*
X105156000Y-106434460D01*
X101439944Y-101439944D02*
X101439944Y-68970056D01*
X105410000Y-70000000D02*
X101889954Y-73520046D01*
X107696000Y-107442000D02*
X105189057Y-104935057D01*
X101889954Y-102532004D02*
X101889954Y-102326046D01*
X104293007Y-104935057D02*
X101889954Y-102532004D01*
X105189057Y-104935057D02*
X104293007Y-104935057D01*
X101889954Y-73520046D02*
X101889954Y-102326046D01*
X105410000Y-76131370D02*
X102339964Y-79201406D01*
X105410000Y-75000000D02*
X105410000Y-76131370D01*
X102339964Y-102345604D02*
X102339964Y-101622036D01*
X104479408Y-104485048D02*
X102339964Y-102345604D01*
X107279049Y-104485049D02*
X104479408Y-104485048D01*
X110236000Y-107442000D02*
X107279049Y-104485049D01*
X102339964Y-79201406D02*
X102339964Y-101622036D01*
X102789972Y-86983620D02*
X102789973Y-102159203D01*
X105410000Y-80010000D02*
X102789973Y-82630027D01*
X102789973Y-82630027D02*
X102789972Y-86983620D01*
X104665809Y-104035039D02*
X103820385Y-103189615D01*
X109369039Y-104035039D02*
X104665809Y-104035039D01*
X112776000Y-107442000D02*
X109369039Y-104035039D01*
X102789973Y-102159203D02*
X103820385Y-103189615D01*
X103239981Y-87170019D02*
X103239982Y-101972802D01*
X105410000Y-85000000D02*
X103239981Y-87170019D01*
X104852209Y-103585029D02*
X104773590Y-103506410D01*
X111459029Y-103585029D02*
X104852209Y-103585029D01*
X115316000Y-107442000D02*
X111459029Y-103585029D01*
X103239982Y-101972802D02*
X104773590Y-103506410D01*
X103689991Y-101786401D02*
X105038609Y-103135019D01*
X105410000Y-90000000D02*
X103689991Y-91720009D01*
X103689991Y-91720009D02*
X103689991Y-101786401D01*
X113549019Y-103135019D02*
X106437019Y-103135019D01*
X117856000Y-107442000D02*
X113549019Y-103135019D01*
X105038609Y-103135019D02*
X106437019Y-103135019D01*
X106437019Y-103135019D02*
X106945019Y-103135019D01*
X105410000Y-95000000D02*
X104140000Y-96270000D01*
X104140000Y-96270000D02*
X104140000Y-101600000D01*
X104140000Y-101600000D02*
X105225009Y-102685009D01*
X114494599Y-102685009D02*
X108527009Y-102685009D01*
X119251590Y-107442000D02*
X114494599Y-102685009D01*
X120396000Y-107442000D02*
X119251590Y-107442000D01*
X105225009Y-102685009D02*
X108527009Y-102685009D01*
X108527009Y-102685009D02*
X109035009Y-102685009D01*
X107645000Y-102235000D02*
X105410000Y-100000000D01*
X114681000Y-102235000D02*
X110363000Y-102235000D01*
X117856000Y-105410000D02*
X114681000Y-102235000D01*
X120904000Y-105410000D02*
X117856000Y-105410000D01*
X122936000Y-107442000D02*
X120904000Y-105410000D01*
X111125000Y-102235000D02*
X110363000Y-102235000D01*
X110363000Y-102235000D02*
X107645000Y-102235000D01*
X107696000Y-115062000D02*
X107696000Y-116967000D01*
X107696000Y-116967000D02*
X109601000Y-116967000D01*
X132080000Y-114935000D02*
X137160000Y-114935000D01*
X137160000Y-114935000D02*
X142240000Y-114935000D01*
X142240000Y-114935000D02*
X147320000Y-114935000D01*
X122936000Y-116967000D02*
X109601000Y-116967000D01*
X122936000Y-115062000D02*
X122936000Y-116967000D01*
X130683000Y-116967000D02*
X132715000Y-114935000D01*
X122936000Y-116967000D02*
X130683000Y-116967000D01*
X149086370Y-114935000D02*
X153035000Y-114935000D01*
X147955000Y-114935000D02*
X149086370Y-114935000D01*
X156983630Y-114935000D02*
X153035000Y-114935000D01*
X158115000Y-114935000D02*
X156983630Y-114935000D01*
X158115000Y-113803630D02*
X158115000Y-114935000D01*
X158115000Y-109601000D02*
X158115000Y-112649000D01*
X164211000Y-103505000D02*
X158115000Y-109601000D01*
X167640000Y-103505000D02*
X164211000Y-103505000D01*
X158115000Y-111898630D02*
X158115000Y-112649000D01*
X158115000Y-112649000D02*
X158115000Y-113803630D01*
X165544000Y-96329000D02*
X165544000Y-95440000D01*
X167640000Y-98425000D02*
X165544000Y-96329000D01*
X165544000Y-95695000D02*
X165544000Y-95440000D01*
X165544000Y-95440000D02*
X165544000Y-51308000D01*
M02*
