G04 #@! TF.GenerationSoftware,KiCad,Pcbnew,(5.1.0)-1*
G04 #@! TF.CreationDate,2019-05-23T23:37:30-04:00*
G04 #@! TF.ProjectId,KITT Voicebox 12v,4b495454-2056-46f6-9963-65626f782031,rev?*
G04 #@! TF.SameCoordinates,Original*
G04 #@! TF.FileFunction,Legend,Bot*
G04 #@! TF.FilePolarity,Positive*
%FSLAX46Y46*%
G04 Gerber Fmt 4.6, Leading zero omitted, Abs format (unit mm)*
G04 Created by KiCad (PCBNEW (5.1.0)-1) date 2019-05-23 23:37:30*
%MOMM*%
%LPD*%
G04 APERTURE LIST*
%ADD10C,0.120000*%
%ADD11C,0.150000*%
G04 APERTURE END LIST*
D10*
X172544000Y-52658000D02*
X172544000Y-47458000D01*
X158544000Y-47458000D02*
X158544000Y-52658000D01*
X160594000Y-53408000D02*
X170494000Y-53408000D01*
X170494000Y-46708000D02*
X160594000Y-46708000D01*
X158244000Y-53058000D02*
X158244000Y-54358000D01*
X158244000Y-54358000D02*
X159544000Y-54358000D01*
X169426075Y-110252863D02*
G75*
G03X169070000Y-108711000I-3270075J56863D01*
G01*
X167641202Y-107282613D02*
G75*
G03X164672000Y-107282000I-1485202J-2913387D01*
G01*
X163242171Y-108712032D02*
G75*
G03X165092000Y-113288000I2913829J-1483968D01*
G01*
X167220608Y-113287846D02*
G75*
G03X169426000Y-110196000I-1064608J3091846D01*
G01*
X119458478Y-73161522D02*
G75*
G02X117620000Y-77600000I-1838478J-1838478D01*
G01*
X115781522Y-73161522D02*
G75*
G03X117620000Y-77600000I1838478J-1838478D01*
G01*
X115820000Y-73150000D02*
X119420000Y-73150000D01*
X115820000Y-78150000D02*
X119420000Y-78150000D01*
X115781522Y-78161522D02*
G75*
G03X117620000Y-82600000I1838478J-1838478D01*
G01*
X119458478Y-78161522D02*
G75*
G02X117620000Y-82600000I-1838478J-1838478D01*
G01*
X176872000Y-92190000D02*
G75*
G03X176872000Y-92190000I-2120000J0D01*
G01*
X175592000Y-92190000D02*
X176832000Y-92190000D01*
X172672000Y-92190000D02*
X173912000Y-92190000D01*
X175592000Y-92230000D02*
X176832000Y-92230000D01*
X172672000Y-92230000D02*
X173912000Y-92230000D01*
X175592000Y-92270000D02*
X176831000Y-92270000D01*
X172673000Y-92270000D02*
X173912000Y-92270000D01*
X172675000Y-92310000D02*
X173912000Y-92310000D01*
X175592000Y-92310000D02*
X176829000Y-92310000D01*
X172678000Y-92350000D02*
X173912000Y-92350000D01*
X175592000Y-92350000D02*
X176826000Y-92350000D01*
X172681000Y-92390000D02*
X173912000Y-92390000D01*
X175592000Y-92390000D02*
X176823000Y-92390000D01*
X172685000Y-92430000D02*
X173912000Y-92430000D01*
X175592000Y-92430000D02*
X176819000Y-92430000D01*
X172690000Y-92470000D02*
X173912000Y-92470000D01*
X175592000Y-92470000D02*
X176814000Y-92470000D01*
X172696000Y-92510000D02*
X173912000Y-92510000D01*
X175592000Y-92510000D02*
X176808000Y-92510000D01*
X172702000Y-92550000D02*
X173912000Y-92550000D01*
X175592000Y-92550000D02*
X176802000Y-92550000D01*
X172710000Y-92590000D02*
X173912000Y-92590000D01*
X175592000Y-92590000D02*
X176794000Y-92590000D01*
X172718000Y-92630000D02*
X173912000Y-92630000D01*
X175592000Y-92630000D02*
X176786000Y-92630000D01*
X172727000Y-92670000D02*
X173912000Y-92670000D01*
X175592000Y-92670000D02*
X176777000Y-92670000D01*
X172736000Y-92710000D02*
X173912000Y-92710000D01*
X175592000Y-92710000D02*
X176768000Y-92710000D01*
X172747000Y-92750000D02*
X173912000Y-92750000D01*
X175592000Y-92750000D02*
X176757000Y-92750000D01*
X172758000Y-92790000D02*
X173912000Y-92790000D01*
X175592000Y-92790000D02*
X176746000Y-92790000D01*
X172770000Y-92830000D02*
X173912000Y-92830000D01*
X175592000Y-92830000D02*
X176734000Y-92830000D01*
X172784000Y-92870000D02*
X173912000Y-92870000D01*
X175592000Y-92870000D02*
X176720000Y-92870000D01*
X172798000Y-92911000D02*
X173912000Y-92911000D01*
X175592000Y-92911000D02*
X176706000Y-92911000D01*
X172812000Y-92951000D02*
X173912000Y-92951000D01*
X175592000Y-92951000D02*
X176692000Y-92951000D01*
X172828000Y-92991000D02*
X173912000Y-92991000D01*
X175592000Y-92991000D02*
X176676000Y-92991000D01*
X172845000Y-93031000D02*
X173912000Y-93031000D01*
X175592000Y-93031000D02*
X176659000Y-93031000D01*
X172863000Y-93071000D02*
X173912000Y-93071000D01*
X175592000Y-93071000D02*
X176641000Y-93071000D01*
X172882000Y-93111000D02*
X173912000Y-93111000D01*
X175592000Y-93111000D02*
X176622000Y-93111000D01*
X172901000Y-93151000D02*
X173912000Y-93151000D01*
X175592000Y-93151000D02*
X176603000Y-93151000D01*
X172922000Y-93191000D02*
X173912000Y-93191000D01*
X175592000Y-93191000D02*
X176582000Y-93191000D01*
X172944000Y-93231000D02*
X173912000Y-93231000D01*
X175592000Y-93231000D02*
X176560000Y-93231000D01*
X172967000Y-93271000D02*
X173912000Y-93271000D01*
X175592000Y-93271000D02*
X176537000Y-93271000D01*
X172992000Y-93311000D02*
X173912000Y-93311000D01*
X175592000Y-93311000D02*
X176512000Y-93311000D01*
X173017000Y-93351000D02*
X173912000Y-93351000D01*
X175592000Y-93351000D02*
X176487000Y-93351000D01*
X173044000Y-93391000D02*
X173912000Y-93391000D01*
X175592000Y-93391000D02*
X176460000Y-93391000D01*
X173072000Y-93431000D02*
X173912000Y-93431000D01*
X175592000Y-93431000D02*
X176432000Y-93431000D01*
X173102000Y-93471000D02*
X173912000Y-93471000D01*
X175592000Y-93471000D02*
X176402000Y-93471000D01*
X173133000Y-93511000D02*
X173912000Y-93511000D01*
X175592000Y-93511000D02*
X176371000Y-93511000D01*
X173165000Y-93551000D02*
X173912000Y-93551000D01*
X175592000Y-93551000D02*
X176339000Y-93551000D01*
X173200000Y-93591000D02*
X173912000Y-93591000D01*
X175592000Y-93591000D02*
X176304000Y-93591000D01*
X173236000Y-93631000D02*
X173912000Y-93631000D01*
X175592000Y-93631000D02*
X176268000Y-93631000D01*
X173274000Y-93671000D02*
X173912000Y-93671000D01*
X175592000Y-93671000D02*
X176230000Y-93671000D01*
X173314000Y-93711000D02*
X173912000Y-93711000D01*
X175592000Y-93711000D02*
X176190000Y-93711000D01*
X173356000Y-93751000D02*
X173912000Y-93751000D01*
X175592000Y-93751000D02*
X176148000Y-93751000D01*
X173401000Y-93791000D02*
X176103000Y-93791000D01*
X173448000Y-93831000D02*
X176056000Y-93831000D01*
X173498000Y-93871000D02*
X176006000Y-93871000D01*
X173552000Y-93911000D02*
X175952000Y-93911000D01*
X173610000Y-93951000D02*
X175894000Y-93951000D01*
X173672000Y-93991000D02*
X175832000Y-93991000D01*
X173739000Y-94031000D02*
X175765000Y-94031000D01*
X173812000Y-94071000D02*
X175692000Y-94071000D01*
X173893000Y-94111000D02*
X175611000Y-94111000D01*
X173984000Y-94151000D02*
X175520000Y-94151000D01*
X174088000Y-94191000D02*
X175416000Y-94191000D01*
X174215000Y-94231000D02*
X175289000Y-94231000D01*
X174382000Y-94271000D02*
X175122000Y-94271000D01*
X173557000Y-89920199D02*
X173557000Y-90320199D01*
X173357000Y-90120199D02*
X173757000Y-90120199D01*
X179205000Y-82695000D02*
X179705000Y-82145000D01*
X180205000Y-82695000D02*
X179205000Y-82695000D01*
X179705000Y-82145000D02*
X180205000Y-82695000D01*
D11*
X185505000Y-69845000D02*
X177755000Y-69845000D01*
X173405000Y-69845000D02*
X171005000Y-69845000D01*
X171005000Y-69845000D02*
X171005000Y-81645000D01*
X171005000Y-81645000D02*
X171105000Y-81645000D01*
X173705000Y-81645000D02*
X177455000Y-81645000D01*
X181955000Y-81645000D02*
X185505000Y-81645000D01*
X185505000Y-81645000D02*
X185505000Y-69845000D01*
X185505000Y-72945000D02*
X189105000Y-72945000D01*
X189105000Y-72945000D02*
X189105000Y-79145000D01*
X189105000Y-79145000D02*
X185505000Y-79145000D01*
X189105000Y-65175000D02*
X185505000Y-65175000D01*
X189105000Y-58975000D02*
X189105000Y-65175000D01*
X185505000Y-58975000D02*
X189105000Y-58975000D01*
X185505000Y-67675000D02*
X185505000Y-55875000D01*
X181955000Y-67675000D02*
X185505000Y-67675000D01*
X173705000Y-67675000D02*
X177455000Y-67675000D01*
X171005000Y-67675000D02*
X171105000Y-67675000D01*
X171005000Y-55875000D02*
X171005000Y-67675000D01*
X173405000Y-55875000D02*
X171005000Y-55875000D01*
X185505000Y-55875000D02*
X177755000Y-55875000D01*
D10*
X179705000Y-68175000D02*
X180205000Y-68725000D01*
X180205000Y-68725000D02*
X179205000Y-68725000D01*
X179205000Y-68725000D02*
X179705000Y-68175000D01*
X178178000Y-100554000D02*
X172118000Y-100554000D01*
X172118000Y-100554000D02*
X172118000Y-103364000D01*
X172118000Y-107964000D02*
X172118000Y-110774000D01*
X172118000Y-110774000D02*
X178178000Y-110774000D01*
X182278000Y-110774000D02*
X185338000Y-110774000D01*
X185338000Y-110774000D02*
X185338000Y-100554000D01*
X185338000Y-100554000D02*
X182278000Y-100554000D01*
X171928000Y-104664000D02*
X171928000Y-106664000D01*
X119458478Y-53161522D02*
G75*
G02X117620000Y-57600000I-1838478J-1838478D01*
G01*
X115781522Y-53161522D02*
G75*
G03X117620000Y-57600000I1838478J-1838478D01*
G01*
X115820000Y-53150000D02*
X119420000Y-53150000D01*
X115820000Y-58150000D02*
X119420000Y-58150000D01*
X115781522Y-58161522D02*
G75*
G03X117620000Y-62600000I1838478J-1838478D01*
G01*
X119458478Y-58161522D02*
G75*
G02X117620000Y-62600000I-1838478J-1838478D01*
G01*
X119458478Y-63161522D02*
G75*
G02X117620000Y-67600000I-1838478J-1838478D01*
G01*
X115781522Y-63161522D02*
G75*
G03X117620000Y-67600000I1838478J-1838478D01*
G01*
X115820000Y-63150000D02*
X119420000Y-63150000D01*
X115820000Y-68150000D02*
X119420000Y-68150000D01*
X115781522Y-68161522D02*
G75*
G03X117620000Y-72600000I1838478J-1838478D01*
G01*
X119458478Y-68161522D02*
G75*
G02X117620000Y-72600000I-1838478J-1838478D01*
G01*
X119458478Y-83161522D02*
G75*
G02X117620000Y-87600000I-1838478J-1838478D01*
G01*
X115781522Y-83161522D02*
G75*
G03X117620000Y-87600000I1838478J-1838478D01*
G01*
X115820000Y-83150000D02*
X119420000Y-83150000D01*
X115820000Y-88150000D02*
X119420000Y-88150000D01*
X115781522Y-88161522D02*
G75*
G03X117620000Y-92600000I1838478J-1838478D01*
G01*
X119458478Y-88161522D02*
G75*
G02X117620000Y-92600000I-1838478J-1838478D01*
G01*
X119458478Y-93161522D02*
G75*
G02X117620000Y-97600000I-1838478J-1838478D01*
G01*
X115781522Y-93161522D02*
G75*
G03X117620000Y-97600000I1838478J-1838478D01*
G01*
X115820000Y-93150000D02*
X119420000Y-93150000D01*
X115820000Y-98150000D02*
X119420000Y-98150000D01*
X115781522Y-98161522D02*
G75*
G03X117620000Y-102600000I1838478J-1838478D01*
G01*
X119458478Y-98161522D02*
G75*
G02X117620000Y-102600000I-1838478J-1838478D01*
G01*
D11*
X165127333Y-50032761D02*
X164984476Y-50080380D01*
X164746380Y-50080380D01*
X164651142Y-50032761D01*
X164603523Y-49985142D01*
X164555904Y-49889904D01*
X164555904Y-49794666D01*
X164603523Y-49699428D01*
X164651142Y-49651809D01*
X164746380Y-49604190D01*
X164936857Y-49556571D01*
X165032095Y-49508952D01*
X165079714Y-49461333D01*
X165127333Y-49366095D01*
X165127333Y-49270857D01*
X165079714Y-49175619D01*
X165032095Y-49128000D01*
X164936857Y-49080380D01*
X164698761Y-49080380D01*
X164555904Y-49128000D01*
X164222571Y-49080380D02*
X163984476Y-50080380D01*
X163794000Y-49366095D01*
X163603523Y-50080380D01*
X163365428Y-49080380D01*
X162460666Y-50080380D02*
X163032095Y-50080380D01*
X162746380Y-50080380D02*
X162746380Y-49080380D01*
X162841619Y-49223238D01*
X162936857Y-49318476D01*
X163032095Y-49366095D01*
X167048380Y-107100761D02*
X166572190Y-106767428D01*
X167048380Y-106529333D02*
X166048380Y-106529333D01*
X166048380Y-106910285D01*
X166096000Y-107005523D01*
X166143619Y-107053142D01*
X166238857Y-107100761D01*
X166381714Y-107100761D01*
X166476952Y-107053142D01*
X166524571Y-107005523D01*
X166572190Y-106910285D01*
X166572190Y-106529333D01*
X166048380Y-107386476D02*
X167048380Y-107719809D01*
X166048380Y-108053142D01*
X167048380Y-108910285D02*
X167048380Y-108338857D01*
X167048380Y-108624571D02*
X166048380Y-108624571D01*
X166191238Y-108529333D01*
X166286476Y-108434095D01*
X166334095Y-108338857D01*
X121445238Y-78047619D02*
X121540476Y-78000000D01*
X121635714Y-77904761D01*
X121778571Y-77761904D01*
X121873809Y-77714285D01*
X121969047Y-77714285D01*
X121921428Y-77952380D02*
X122016666Y-77904761D01*
X122111904Y-77809523D01*
X122159523Y-77619047D01*
X122159523Y-77285714D01*
X122111904Y-77095238D01*
X122016666Y-77000000D01*
X121921428Y-76952380D01*
X121730952Y-76952380D01*
X121635714Y-77000000D01*
X121540476Y-77095238D01*
X121492857Y-77285714D01*
X121492857Y-77619047D01*
X121540476Y-77809523D01*
X121635714Y-77904761D01*
X121730952Y-77952380D01*
X121921428Y-77952380D01*
X120588095Y-76952380D02*
X121064285Y-76952380D01*
X121111904Y-77428571D01*
X121064285Y-77380952D01*
X120969047Y-77333333D01*
X120730952Y-77333333D01*
X120635714Y-77380952D01*
X120588095Y-77428571D01*
X120540476Y-77523809D01*
X120540476Y-77761904D01*
X120588095Y-77857142D01*
X120635714Y-77904761D01*
X120730952Y-77952380D01*
X120969047Y-77952380D01*
X121064285Y-77904761D01*
X121111904Y-77857142D01*
X121445238Y-83047619D02*
X121540476Y-83000000D01*
X121635714Y-82904761D01*
X121778571Y-82761904D01*
X121873809Y-82714285D01*
X121969047Y-82714285D01*
X121921428Y-82952380D02*
X122016666Y-82904761D01*
X122111904Y-82809523D01*
X122159523Y-82619047D01*
X122159523Y-82285714D01*
X122111904Y-82095238D01*
X122016666Y-82000000D01*
X121921428Y-81952380D01*
X121730952Y-81952380D01*
X121635714Y-82000000D01*
X121540476Y-82095238D01*
X121492857Y-82285714D01*
X121492857Y-82619047D01*
X121540476Y-82809523D01*
X121635714Y-82904761D01*
X121730952Y-82952380D01*
X121921428Y-82952380D01*
X120635714Y-81952380D02*
X120826190Y-81952380D01*
X120921428Y-82000000D01*
X120969047Y-82047619D01*
X121064285Y-82190476D01*
X121111904Y-82380952D01*
X121111904Y-82761904D01*
X121064285Y-82857142D01*
X121016666Y-82904761D01*
X120921428Y-82952380D01*
X120730952Y-82952380D01*
X120635714Y-82904761D01*
X120588095Y-82857142D01*
X120540476Y-82761904D01*
X120540476Y-82523809D01*
X120588095Y-82428571D01*
X120635714Y-82380952D01*
X120730952Y-82333333D01*
X120921428Y-82333333D01*
X121016666Y-82380952D01*
X121064285Y-82428571D01*
X121111904Y-82523809D01*
X171859142Y-92023333D02*
X171906761Y-91975714D01*
X171954380Y-91832857D01*
X171954380Y-91737619D01*
X171906761Y-91594761D01*
X171811523Y-91499523D01*
X171716285Y-91451904D01*
X171525809Y-91404285D01*
X171382952Y-91404285D01*
X171192476Y-91451904D01*
X171097238Y-91499523D01*
X171002000Y-91594761D01*
X170954380Y-91737619D01*
X170954380Y-91832857D01*
X171002000Y-91975714D01*
X171049619Y-92023333D01*
X171954380Y-92975714D02*
X171954380Y-92404285D01*
X171954380Y-92690000D02*
X170954380Y-92690000D01*
X171097238Y-92594761D01*
X171192476Y-92499523D01*
X171240095Y-92404285D01*
X183538333Y-82397380D02*
X183538333Y-83111666D01*
X183585952Y-83254523D01*
X183681190Y-83349761D01*
X183824047Y-83397380D01*
X183919285Y-83397380D01*
X182538333Y-83397380D02*
X183109761Y-83397380D01*
X182824047Y-83397380D02*
X182824047Y-82397380D01*
X182919285Y-82540238D01*
X183014523Y-82635476D01*
X183109761Y-82683095D01*
X183538333Y-68427380D02*
X183538333Y-69141666D01*
X183585952Y-69284523D01*
X183681190Y-69379761D01*
X183824047Y-69427380D01*
X183919285Y-69427380D01*
X183109761Y-68522619D02*
X183062142Y-68475000D01*
X182966904Y-68427380D01*
X182728809Y-68427380D01*
X182633571Y-68475000D01*
X182585952Y-68522619D01*
X182538333Y-68617857D01*
X182538333Y-68713095D01*
X182585952Y-68855952D01*
X183157380Y-69427380D01*
X182538333Y-69427380D01*
X170380380Y-105330666D02*
X171094666Y-105330666D01*
X171237523Y-105283047D01*
X171332761Y-105187809D01*
X171380380Y-105044952D01*
X171380380Y-104949714D01*
X170380380Y-105711619D02*
X170380380Y-106330666D01*
X170761333Y-105997333D01*
X170761333Y-106140190D01*
X170808952Y-106235428D01*
X170856571Y-106283047D01*
X170951809Y-106330666D01*
X171189904Y-106330666D01*
X171285142Y-106283047D01*
X171332761Y-106235428D01*
X171380380Y-106140190D01*
X171380380Y-105854476D01*
X171332761Y-105759238D01*
X171285142Y-105711619D01*
X121445238Y-58047619D02*
X121540476Y-58000000D01*
X121635714Y-57904761D01*
X121778571Y-57761904D01*
X121873809Y-57714285D01*
X121969047Y-57714285D01*
X121921428Y-57952380D02*
X122016666Y-57904761D01*
X122111904Y-57809523D01*
X122159523Y-57619047D01*
X122159523Y-57285714D01*
X122111904Y-57095238D01*
X122016666Y-57000000D01*
X121921428Y-56952380D01*
X121730952Y-56952380D01*
X121635714Y-57000000D01*
X121540476Y-57095238D01*
X121492857Y-57285714D01*
X121492857Y-57619047D01*
X121540476Y-57809523D01*
X121635714Y-57904761D01*
X121730952Y-57952380D01*
X121921428Y-57952380D01*
X120540476Y-57952380D02*
X121111904Y-57952380D01*
X120826190Y-57952380D02*
X120826190Y-56952380D01*
X120921428Y-57095238D01*
X121016666Y-57190476D01*
X121111904Y-57238095D01*
X121445238Y-63047619D02*
X121540476Y-63000000D01*
X121635714Y-62904761D01*
X121778571Y-62761904D01*
X121873809Y-62714285D01*
X121969047Y-62714285D01*
X121921428Y-62952380D02*
X122016666Y-62904761D01*
X122111904Y-62809523D01*
X122159523Y-62619047D01*
X122159523Y-62285714D01*
X122111904Y-62095238D01*
X122016666Y-62000000D01*
X121921428Y-61952380D01*
X121730952Y-61952380D01*
X121635714Y-62000000D01*
X121540476Y-62095238D01*
X121492857Y-62285714D01*
X121492857Y-62619047D01*
X121540476Y-62809523D01*
X121635714Y-62904761D01*
X121730952Y-62952380D01*
X121921428Y-62952380D01*
X121111904Y-62047619D02*
X121064285Y-62000000D01*
X120969047Y-61952380D01*
X120730952Y-61952380D01*
X120635714Y-62000000D01*
X120588095Y-62047619D01*
X120540476Y-62142857D01*
X120540476Y-62238095D01*
X120588095Y-62380952D01*
X121159523Y-62952380D01*
X120540476Y-62952380D01*
X121445238Y-68047619D02*
X121540476Y-68000000D01*
X121635714Y-67904761D01*
X121778571Y-67761904D01*
X121873809Y-67714285D01*
X121969047Y-67714285D01*
X121921428Y-67952380D02*
X122016666Y-67904761D01*
X122111904Y-67809523D01*
X122159523Y-67619047D01*
X122159523Y-67285714D01*
X122111904Y-67095238D01*
X122016666Y-67000000D01*
X121921428Y-66952380D01*
X121730952Y-66952380D01*
X121635714Y-67000000D01*
X121540476Y-67095238D01*
X121492857Y-67285714D01*
X121492857Y-67619047D01*
X121540476Y-67809523D01*
X121635714Y-67904761D01*
X121730952Y-67952380D01*
X121921428Y-67952380D01*
X121159523Y-66952380D02*
X120540476Y-66952380D01*
X120873809Y-67333333D01*
X120730952Y-67333333D01*
X120635714Y-67380952D01*
X120588095Y-67428571D01*
X120540476Y-67523809D01*
X120540476Y-67761904D01*
X120588095Y-67857142D01*
X120635714Y-67904761D01*
X120730952Y-67952380D01*
X121016666Y-67952380D01*
X121111904Y-67904761D01*
X121159523Y-67857142D01*
X121445238Y-73047619D02*
X121540476Y-73000000D01*
X121635714Y-72904761D01*
X121778571Y-72761904D01*
X121873809Y-72714285D01*
X121969047Y-72714285D01*
X121921428Y-72952380D02*
X122016666Y-72904761D01*
X122111904Y-72809523D01*
X122159523Y-72619047D01*
X122159523Y-72285714D01*
X122111904Y-72095238D01*
X122016666Y-72000000D01*
X121921428Y-71952380D01*
X121730952Y-71952380D01*
X121635714Y-72000000D01*
X121540476Y-72095238D01*
X121492857Y-72285714D01*
X121492857Y-72619047D01*
X121540476Y-72809523D01*
X121635714Y-72904761D01*
X121730952Y-72952380D01*
X121921428Y-72952380D01*
X120635714Y-72285714D02*
X120635714Y-72952380D01*
X120873809Y-71904761D02*
X121111904Y-72619047D01*
X120492857Y-72619047D01*
X121445238Y-88047619D02*
X121540476Y-88000000D01*
X121635714Y-87904761D01*
X121778571Y-87761904D01*
X121873809Y-87714285D01*
X121969047Y-87714285D01*
X121921428Y-87952380D02*
X122016666Y-87904761D01*
X122111904Y-87809523D01*
X122159523Y-87619047D01*
X122159523Y-87285714D01*
X122111904Y-87095238D01*
X122016666Y-87000000D01*
X121921428Y-86952380D01*
X121730952Y-86952380D01*
X121635714Y-87000000D01*
X121540476Y-87095238D01*
X121492857Y-87285714D01*
X121492857Y-87619047D01*
X121540476Y-87809523D01*
X121635714Y-87904761D01*
X121730952Y-87952380D01*
X121921428Y-87952380D01*
X121159523Y-86952380D02*
X120492857Y-86952380D01*
X120921428Y-87952380D01*
X121445238Y-93047619D02*
X121540476Y-93000000D01*
X121635714Y-92904761D01*
X121778571Y-92761904D01*
X121873809Y-92714285D01*
X121969047Y-92714285D01*
X121921428Y-92952380D02*
X122016666Y-92904761D01*
X122111904Y-92809523D01*
X122159523Y-92619047D01*
X122159523Y-92285714D01*
X122111904Y-92095238D01*
X122016666Y-92000000D01*
X121921428Y-91952380D01*
X121730952Y-91952380D01*
X121635714Y-92000000D01*
X121540476Y-92095238D01*
X121492857Y-92285714D01*
X121492857Y-92619047D01*
X121540476Y-92809523D01*
X121635714Y-92904761D01*
X121730952Y-92952380D01*
X121921428Y-92952380D01*
X120921428Y-92380952D02*
X121016666Y-92333333D01*
X121064285Y-92285714D01*
X121111904Y-92190476D01*
X121111904Y-92142857D01*
X121064285Y-92047619D01*
X121016666Y-92000000D01*
X120921428Y-91952380D01*
X120730952Y-91952380D01*
X120635714Y-92000000D01*
X120588095Y-92047619D01*
X120540476Y-92142857D01*
X120540476Y-92190476D01*
X120588095Y-92285714D01*
X120635714Y-92333333D01*
X120730952Y-92380952D01*
X120921428Y-92380952D01*
X121016666Y-92428571D01*
X121064285Y-92476190D01*
X121111904Y-92571428D01*
X121111904Y-92761904D01*
X121064285Y-92857142D01*
X121016666Y-92904761D01*
X120921428Y-92952380D01*
X120730952Y-92952380D01*
X120635714Y-92904761D01*
X120588095Y-92857142D01*
X120540476Y-92761904D01*
X120540476Y-92571428D01*
X120588095Y-92476190D01*
X120635714Y-92428571D01*
X120730952Y-92380952D01*
X121445238Y-98047619D02*
X121540476Y-98000000D01*
X121635714Y-97904761D01*
X121778571Y-97761904D01*
X121873809Y-97714285D01*
X121969047Y-97714285D01*
X121921428Y-97952380D02*
X122016666Y-97904761D01*
X122111904Y-97809523D01*
X122159523Y-97619047D01*
X122159523Y-97285714D01*
X122111904Y-97095238D01*
X122016666Y-97000000D01*
X121921428Y-96952380D01*
X121730952Y-96952380D01*
X121635714Y-97000000D01*
X121540476Y-97095238D01*
X121492857Y-97285714D01*
X121492857Y-97619047D01*
X121540476Y-97809523D01*
X121635714Y-97904761D01*
X121730952Y-97952380D01*
X121921428Y-97952380D01*
X121016666Y-97952380D02*
X120826190Y-97952380D01*
X120730952Y-97904761D01*
X120683333Y-97857142D01*
X120588095Y-97714285D01*
X120540476Y-97523809D01*
X120540476Y-97142857D01*
X120588095Y-97047619D01*
X120635714Y-97000000D01*
X120730952Y-96952380D01*
X120921428Y-96952380D01*
X121016666Y-97000000D01*
X121064285Y-97047619D01*
X121111904Y-97142857D01*
X121111904Y-97380952D01*
X121064285Y-97476190D01*
X121016666Y-97523809D01*
X120921428Y-97571428D01*
X120730952Y-97571428D01*
X120635714Y-97523809D01*
X120588095Y-97476190D01*
X120540476Y-97380952D01*
X121921428Y-103047619D02*
X122016666Y-103000000D01*
X122111904Y-102904761D01*
X122254761Y-102761904D01*
X122350000Y-102714285D01*
X122445238Y-102714285D01*
X122397619Y-102952380D02*
X122492857Y-102904761D01*
X122588095Y-102809523D01*
X122635714Y-102619047D01*
X122635714Y-102285714D01*
X122588095Y-102095238D01*
X122492857Y-102000000D01*
X122397619Y-101952380D01*
X122207142Y-101952380D01*
X122111904Y-102000000D01*
X122016666Y-102095238D01*
X121969047Y-102285714D01*
X121969047Y-102619047D01*
X122016666Y-102809523D01*
X122111904Y-102904761D01*
X122207142Y-102952380D01*
X122397619Y-102952380D01*
X121016666Y-102952380D02*
X121588095Y-102952380D01*
X121302380Y-102952380D02*
X121302380Y-101952380D01*
X121397619Y-102095238D01*
X121492857Y-102190476D01*
X121588095Y-102238095D01*
X120397619Y-101952380D02*
X120302380Y-101952380D01*
X120207142Y-102000000D01*
X120159523Y-102047619D01*
X120111904Y-102142857D01*
X120064285Y-102333333D01*
X120064285Y-102571428D01*
X120111904Y-102761904D01*
X120159523Y-102857142D01*
X120207142Y-102904761D01*
X120302380Y-102952380D01*
X120397619Y-102952380D01*
X120492857Y-102904761D01*
X120540476Y-102857142D01*
X120588095Y-102761904D01*
X120635714Y-102571428D01*
X120635714Y-102333333D01*
X120588095Y-102142857D01*
X120540476Y-102047619D01*
X120492857Y-102000000D01*
X120397619Y-101952380D01*
M02*
