M48
; DRILL file {KiCad (5.1.0)-1} date 5/23/2019 11:38:48 PM
; FORMAT={-:-/ absolute / inch / decimal}
; #@! TF.CreationDate,2019-05-23T23:38:48-04:00
; #@! TF.GenerationSoftware,Kicad,Pcbnew,(5.1.0)-1
; #@! TF.FileFunction,Plated,1,2,PTH
FMAT,2
INCH
T1C0.0157
T2C0.0236
T3C0.0295
T4C0.0311
T5C0.0315
T6C0.0354
T7C0.0360
T8C0.0394
T9C0.0472
T10C0.0512
T11C0.1181
%
G90
G05
T1
X4.69Y-4.08
X4.74Y-4.08
X4.79Y-4.08
T2
X6.88Y-3.6
X6.88Y-3.6591
T3
X4.5807Y-2.3622
X4.6307Y-2.3622
X4.6807Y-2.3622
X4.5807Y-3.3465
X4.6307Y-3.3465
X4.6807Y-3.3465
X4.5807Y-2.9528
X4.6307Y-2.9528
X4.6807Y-2.9528
X4.5807Y-2.7559
X4.6307Y-2.7559
X4.6807Y-2.7559
X4.5807Y-3.7402
X4.6307Y-3.7402
X4.6807Y-3.7402
X4.5807Y-3.937
X4.6307Y-3.937
X4.6807Y-3.937
X4.5807Y-2.1654
X4.6307Y-2.1654
X4.6807Y-2.1654
X4.5807Y-3.1496
X4.6307Y-3.1496
X4.6807Y-3.1496
X4.5807Y-2.5591
X4.6307Y-2.5591
X4.6807Y-2.5591
X4.5807Y-3.5433
X4.6307Y-3.5433
X4.6807Y-3.5433
T4
X4.04Y-4.23
X4.04Y-4.53
X4.14Y-4.23
X4.14Y-4.53
X4.24Y-4.23
X4.24Y-4.53
X4.34Y-4.23
X4.34Y-4.53
X4.44Y-4.23
X4.44Y-4.53
X4.54Y-4.23
X4.54Y-4.53
X4.64Y-4.23
X4.64Y-4.53
X4.74Y-4.23
X4.74Y-4.53
X4.84Y-4.23
X4.84Y-4.53
T5
X4.15Y-3.15
X4.45Y-3.15
X4.15Y-2.3622
X4.45Y-2.3622
X5.03Y-4.23
X5.03Y-4.53
X5.825Y-4.225
X5.825Y-4.525
X4.15Y-3.7402
X4.45Y-3.7402
X6.3Y-3.875
X6.6Y-3.875
X5.625Y-4.225
X5.625Y-4.525
X5.225Y-4.225
X5.225Y-4.525
X6.3Y-4.075
X6.6Y-4.075
X4.15Y-2.5591
X4.45Y-2.5591
X4.15Y-3.3465
X4.45Y-3.3465
X6.025Y-4.225
X6.025Y-4.525
X4.15Y-2.9528
X4.45Y-2.9528
X6.3Y-3.48
X6.6Y-3.48
X4.15Y-2.7559
X4.45Y-2.7559
X4.15Y-2.1654
X4.45Y-2.1654
X6.3Y-3.68
X6.6Y-3.68
X5.425Y-4.225
X5.425Y-4.525
X4.15Y-3.5433
X4.45Y-3.5433
X4.15Y-3.937
X4.45Y-3.937
X6.225Y-4.225
X6.225Y-4.525
T6
X6.36Y-1.9216
X6.36Y-2.02
X6.5175Y-1.9216
X6.5175Y-2.02
X6.675Y-1.9216
X6.675Y-2.02
X6.4431Y-4.24
X6.5416Y-4.4369
X6.64Y-4.24
T7
X5.3323Y-2.0941
X5.3323Y-2.1941
X5.3323Y-2.2941
X5.3323Y-2.3941
X5.3323Y-2.4941
X5.3323Y-2.5941
X5.3323Y-2.6941
X5.3323Y-2.7941
X5.3323Y-2.8941
X5.3323Y-2.9941
X5.6323Y-2.0941
X5.6323Y-2.1941
X5.6323Y-2.2941
X5.6323Y-2.3941
X5.6323Y-2.4941
X5.6323Y-2.5941
X5.6323Y-2.6941
X5.6323Y-2.7941
X5.6323Y-2.8941
X5.6323Y-2.9941
X5.7433Y-2.0941
X5.7433Y-2.1941
X5.7433Y-2.2941
X5.7433Y-2.3941
X5.7433Y-2.4941
X5.7433Y-2.5941
X5.7433Y-2.6941
X5.7433Y-2.7941
X5.7433Y-2.8941
X5.7433Y-2.9941
X6.0433Y-2.0941
X6.0433Y-2.1941
X6.0433Y-2.2941
X6.0433Y-2.3941
X6.0433Y-2.4941
X6.0433Y-2.5941
X6.0433Y-2.6941
X6.0433Y-2.7941
X6.0433Y-2.8941
X6.0433Y-2.9941
X4.9213Y-2.0941
X4.9213Y-2.1941
X4.9213Y-2.2941
X4.9213Y-2.3941
X4.9213Y-2.4941
X4.9213Y-2.5941
X4.9213Y-2.6941
X4.9213Y-2.7941
X4.9213Y-2.8941
X4.9213Y-2.9941
X5.2213Y-2.0941
X5.2213Y-2.1941
X5.2213Y-2.2941
X5.2213Y-2.3941
X5.2213Y-2.4941
X5.2213Y-2.5941
X5.2213Y-2.6941
X5.2213Y-2.7941
X5.2213Y-2.8941
X5.2213Y-2.9941
X4.9213Y-3.0984
X4.9213Y-3.1984
X4.9213Y-3.2984
X4.9213Y-3.3984
X4.9213Y-3.4984
X4.9213Y-3.5984
X4.9213Y-3.6984
X4.9213Y-3.7984
X4.9213Y-3.8984
X4.9213Y-3.9984
X5.2213Y-3.0984
X5.2213Y-3.1984
X5.2213Y-3.2984
X5.2213Y-3.3984
X5.2213Y-3.4984
X5.2213Y-3.5984
X5.2213Y-3.6984
X5.2213Y-3.7984
X5.2213Y-3.8984
X5.2213Y-3.9984
X5.7433Y-3.0984
X5.7433Y-3.1984
X5.7433Y-3.2984
X5.7433Y-3.3984
X5.7433Y-3.4984
X5.7433Y-3.5984
X5.7433Y-3.6984
X5.7433Y-3.7984
X5.7433Y-3.8984
X5.7433Y-3.9984
X6.0433Y-3.0984
X6.0433Y-3.1984
X6.0433Y-3.2984
X6.0433Y-3.3984
X6.0433Y-3.4984
X6.0433Y-3.5984
X6.0433Y-3.6984
X6.0433Y-3.7984
X6.0433Y-3.8984
X6.0433Y-3.9984
X5.3323Y-3.0984
X5.3323Y-3.1984
X5.3323Y-3.2984
X5.3323Y-3.3984
X5.3323Y-3.4984
X5.3323Y-3.5984
X5.3323Y-3.6984
X5.3323Y-3.7984
X5.3323Y-3.8984
X5.3323Y-3.9984
X5.6323Y-3.0984
X5.6323Y-3.1984
X5.6323Y-3.2984
X5.6323Y-3.3984
X5.6323Y-3.4984
X5.6323Y-3.5984
X5.6323Y-3.6984
X5.6323Y-3.7984
X5.6323Y-3.8984
X5.6323Y-3.9984
T9
X6.2813Y-1.8527
X6.2813Y-2.0889
X6.7537Y-1.8527
X6.7537Y-2.0889
T10
X6.7876Y-3.1553
X6.9136Y-2.7892
X6.9608Y-2.8955
X7.075Y-3.175
X7.2285Y-2.9939
X6.7876Y-2.6053
X6.9136Y-2.2392
X6.9608Y-2.3455
X7.075Y-2.625
X7.2285Y-2.4439
T11
X3.83Y-4.66
X3.83Y-1.98
X7.12Y-1.98
X7.12Y-4.65
T8
G00X6.82Y-4.1206
M15
G01X6.82Y-4.1994
M16
G05
G00X7.0562Y-4.1344
M15
G01X7.0562Y-4.1856
M16
G05
G00X7.1251Y-3.9828
M15
G01X7.0661Y-3.9828
M16
G05
G00X7.1251Y-4.3372
M15
G01X7.0661Y-4.3372
M16
G05
T0
M30
